<?xml version="1.0" encoding="UTF-8"?>
<!DOCTYPE svg PUBLIC "-//W3C//DTD SVG 1.1//EN" "http://www.w3.org/Graphics/SVG/1.1/DTD/svg11.dtd">
<svg xmlns="http://www.w3.org/2000/svg" version="1.1" width="512px" height="512px" style="shape-rendering:geometricPrecision; text-rendering:geometricPrecision; image-rendering:optimizeQuality; fill-rule:evenodd; clip-rule:evenodd" xmlns:xlink="http://www.w3.org/1999/xlink">
<g><path style="opacity:0.988" fill="#000000" d="M 248.5,9.5 C 267.692,7.33195 280.192,15.3319 286,33.5C 286.5,97.1658 286.667,160.832 286.5,224.5C 350.168,224.333 413.834,224.5 477.5,225C 497.392,231.942 504.892,245.775 500,266.5C 495.905,276.928 488.405,283.428 477.5,286C 413.834,286.5 350.168,286.667 286.5,286.5C 286.667,350.168 286.5,413.834 286,477.5C 279.058,497.392 265.225,504.892 244.5,500C 234.072,495.905 227.572,488.405 225,477.5C 224.5,413.834 224.333,350.168 224.5,286.5C 160.832,286.667 97.1658,286.5 33.5,286C 13.6026,279.046 6.10256,265.213 11,244.5C 15.1028,234.063 22.6028,227.563 33.5,225C 97.1658,224.5 160.832,224.333 224.5,224.5C 224.333,160.832 224.5,97.1658 225,33.5C 228.349,20.9853 236.182,12.9853 248.5,9.5 Z"/></g>
</svg>
