<?xml version="1.0" encoding="UTF-8"?>
<!DOCTYPE svg PUBLIC "-//W3C//DTD SVG 1.1//EN" "http://www.w3.org/Graphics/SVG/1.1/DTD/svg11.dtd">
<svg xmlns="http://www.w3.org/2000/svg" version="1.1" width="512px" height="512px" style="shape-rendering:geometricPrecision; text-rendering:geometricPrecision; image-rendering:optimizeQuality; fill-rule:evenodd; clip-rule:evenodd" xmlns:xlink="http://www.w3.org/1999/xlink">
<g><path style="opacity:0.978" fill="#000000" d="M 250.5,51.5 C 255.777,50.9312 260.777,51.7645 265.5,54C 297,85.5 328.5,117 360,148.5C 365.987,159.188 363.821,167.688 353.5,174C 347.522,176.242 341.855,175.575 336.5,172C 315,150.5 293.5,129 272,107.5C 271.667,188.167 271.333,268.833 271,349.5C 268.193,356.487 263.027,359.82 255.5,359.5C 247.973,359.82 242.807,356.487 240,349.5C 239.667,268.833 239.333,188.167 239,107.5C 217.833,128.667 196.667,149.833 175.5,171C 161.375,177.104 152.375,172.77 148.5,158C 149.042,154.284 150.209,150.784 152,147.5C 182.833,116.667 213.667,85.8333 244.5,55C 246.432,53.5415 248.432,52.3748 250.5,51.5 Z"/></g>
<g><path style="opacity:0.98" fill="#000000" d="M 49.5,307.5 C 57.4929,307.079 63.3262,310.412 67,317.5C 68.292,340.45 68.9586,363.45 69,386.5C 73.2798,407.447 85.7798,420.614 106.5,426C 156.147,427.143 205.813,427.643 255.5,427.5C 301.833,427.333 348.167,427.167 394.5,427C 420.476,425.355 436.31,411.855 442,386.5C 442.333,364.833 442.667,343.167 443,321.5C 447.814,308.081 456.648,304.581 469.5,311C 472.467,313.1 474.3,315.934 475,319.5C 475.667,343.167 475.667,366.833 475,390.5C 467.583,428.25 445.083,451.083 407.5,459C 304.465,459.989 201.465,459.656 98.5,458C 63.5065,448.671 42.6732,426.171 36,390.5C 35.3333,366.833 35.3333,343.167 36,319.5C 38.1962,312.798 42.6962,308.798 49.5,307.5 Z"/></g>
</svg>
